<?xml version="1.0" standalone="no"?>
<!DOCTYPE svg PUBLIC "-//W3C//DTD SVG 20010904//EN"
 "http://www.w3.org/TR/2001/REC-SVG-20010904/DTD/svg10.dtd">
<svg version="1.0" xmlns="http://www.w3.org/2000/svg"
 width="512.000000pt" height="512.000000pt" viewBox="0 0 512.000000 512.000000"
 preserveAspectRatio="xMidYMid meet">

<g transform="translate(0.000000,512.000000) scale(0.100000,-0.100000)"
fill="#000000" stroke="none">
<path d="M211 5092 c-64 -24 -153 -110 -182 -174 -17 -41 -23 -72 -23 -133 -1
-152 -78 -65 1065 -1210 l1019 -1020 -1010 -1010 c-1143 -1142 -1075 -1065
-1075 -1220 0 -67 5 -89 28 -136 36 -74 107 -140 183 -169 77 -29 186 -25 260
10 39 18 248 222 1066 1039 l1018 1016 1018 -1016 c818 -817 1027 -1021 1067
-1040 42 -20 66 -24 145 -24 84 0 101 3 145 27 62 32 130 104 158 166 16 35
21 68 22 127 0 155 68 77 -1075 1220 l-1010 1010 1019 1020 c1142 1145 1066
1058 1065 1210 0 65 -5 90 -25 135 -31 65 -96 132 -159 163 -67 33 -186 36
-265 7 -58 -22 -93 -55 -1082 -1043 l-1023 -1022 -1022 1021 c-978 976 -1026
1023 -1081 1043 -71 26 -182 27 -246 3z"/>
</g>
</svg>
